<svg width="43" height="41" viewBox="0 0 43 41" fill="none" xmlns="http://www.w3.org/2000/svg">
<path fill-rule="evenodd" clip-rule="evenodd" d="M5.75364 11.3637L3.68309 14.9528C1.7041 18.3832 1.7041 22.6168 3.68309 26.0472L5.75815 29.6441L7.81401 33.2418C9.77898 36.6803 13.4251 38.7971 17.3691 38.789L21.5045 38.7804L25.6309 38.789C29.5749 38.7971 33.221 36.6803 35.186 33.2418L37.2464 29.6363L39.3169 26.0472C41.2959 22.6168 41.2959 18.3832 39.3169 14.9528L38.8626 14.1653C38.6893 14.198 38.5106 14.2151 38.3279 14.2151C36.7347 14.2151 35.4431 12.9163 35.4431 11.3143C35.4431 10.5928 35.7051 9.93279 36.1386 9.42525L35.186 7.75823C33.221 4.31967 29.5749 2.20291 25.6309 2.21105L21.4955 2.21958L17.3691 2.21105C13.4251 2.20291 9.77898 4.31967 7.814 7.75823L5.75364 11.3637ZM38.1015 8.42233L37.0925 6.65665C34.7345 2.53037 30.3592 -0.00973198 25.6264 2.80252e-05L21.5 0.0085376L17.3736 2.83879e-05C12.6408 -0.0097312 8.26547 2.53038 5.9075 6.65665L3.85162 10.2543L1.78109 13.8434C-0.593696 17.9599 -0.593696 23.0401 1.78109 27.1566L3.85162 30.7457L5.9075 34.3434C8.26547 38.4696 12.6408 41.0097 17.3736 41L21.5 40.9915L25.6264 41C30.3592 41.0097 34.7345 38.4696 37.0925 34.3434L39.1484 30.7457L41.2189 27.1566C43.5937 23.0401 43.5937 17.9599 41.2189 13.8434L40.7068 12.9557C41.0259 12.4889 41.2127 11.9235 41.2127 11.3143C41.2127 9.71224 39.9211 8.41353 38.3279 8.41353C38.2517 8.41353 38.1762 8.4165 38.1015 8.42233ZM8.78208 17.5097L10.5814 14.361L12.3394 11.2555C13.4028 9.3768 15.3889 8.21838 17.5386 8.22286L21.0242 8.23013L28.6966 8.21635C29.0734 8.21567 29.4214 8.41874 29.6078 8.748L30.1822 9.76272C30.5068 10.3361 30.0949 11.0484 29.4388 11.0484L18.9579 11.0484C16.9223 11.0484 15.0438 12.1487 14.0396 13.9291L11.9157 17.695C10.9345 19.4347 10.9345 21.5648 11.9157 23.3045L14.0396 27.0703C15.0438 28.8508 16.9223 29.9511 18.9579 29.9511H29.1484C29.8046 29.9511 30.2164 30.6633 29.8918 31.2367L29.3175 32.2513C29.1311 32.5806 28.783 32.7837 28.4062 32.783L21.0328 32.7693L17.5386 32.7766C15.3889 32.7811 13.4028 31.6226 12.3394 29.744L10.5859 26.6463L8.78208 23.4897C7.7241 21.6383 7.7241 19.3611 8.78208 17.5097ZM17.5432 34.9876L21.0288 34.9804L28.4022 34.994C29.5708 34.9962 30.6504 34.3663 31.2285 33.3451L31.8028 32.3305C32.9618 30.2831 31.4913 27.74 29.1484 27.74H18.9579C17.7139 27.74 16.566 27.0677 15.9523 25.9796L13.8284 22.2137C13.2287 21.1506 13.2287 19.8489 13.8284 18.7857L15.9523 15.0199C16.566 13.9318 17.7139 13.2594 18.9579 13.2594H29.4388C31.7816 13.2594 33.2521 10.7164 32.0932 8.66898L31.5188 7.65426C30.9407 6.63305 29.8612 6.00323 28.6927 6.00532L21.0288 6.01909L17.5432 6.01184C14.6014 6.00571 11.8836 7.59092 10.4284 10.1617L8.67492 13.2594L6.87557 16.4081C5.42781 18.9416 5.42781 22.0578 6.87557 24.5913L8.67492 27.74L10.4284 30.8377C11.8836 33.4085 14.6014 34.9937 17.5432 34.9876ZM20.9927 18.6045H33.3156C33.8836 18.6045 34.4428 18.8984 34.778 19.3892C35.1908 19.9938 35.1789 20.7962 34.7748 21.3652C34.4568 21.8132 33.9431 22.079 33.3958 22.079H20.9125C20.3652 22.079 19.8515 21.8132 19.5335 21.3652C19.1294 20.7962 19.1175 19.9938 19.5303 19.3892C19.8654 18.8984 20.4247 18.6045 20.9927 18.6045ZM33.3156 16.3935C34.6202 16.3935 35.8523 17.0563 36.5907 18.1378C37.5171 19.4946 37.5154 21.3106 36.5643 22.65C35.8335 23.6792 34.6534 24.29 33.3958 24.29H20.9125C19.6549 24.29 18.4747 23.6792 17.744 22.65C16.7929 21.3106 16.7912 19.4946 17.7176 18.1378C18.4559 17.0563 19.6881 16.3935 20.9927 16.3935H33.3156Z" fill="url(#paint0_linear_518_1460)"/>
<defs>
<linearGradient id="paint0_linear_518_1460" x1="21.5" y1="0" x2="21.5" y2="41" gradientUnits="userSpaceOnUse">
<stop stop-color="#90DEFF"/>
<stop offset="1" stop-color="#00A3FF"/>
</linearGradient>
</defs>
</svg>
